<svg xmlns="http://www.w3.org/2000/svg" version="1.1" xmlns:xlink="http://www.w3.org/1999/xlink" xmlns:svgjs="http://svgjs.dev/svgjs" width="100%" height="100%" viewBox="0 0 1000 600"><rect width="1000" height="600" x="0" y="0" fill="#ee4e34"/><g><rect width="333.3333333333333" height="333.3333333333333" rx="13.333333333333334" ry="13.333333333333334" y="226.48810662124234" fill="#fcedda" transform="matrix(0.6119475963130183,0,0,0.6119475963130182,0,59.40990158697498)" x="204.26585388183594"/><path d="M306.0714097340939 468.1547604493044L267.5644659697066 468.1547604493044Q269.30057705015685 468.1547604493044 271.07141035221616 464.6478160667948Q272.8075214326664 461.14087168428523 272.8075214326664 453.1547607142139L272.8075214326664 453.1547607142139L272.8075214326664 333.1547628334901Q272.8075214326664 325.1686518634188 271.07141035221616 321.76587414573623Q269.30057705015685 318.39781864966267 267.5644659697066 318.15476309839966L267.5644659697066 318.15476309839966L313.8144651529022 318.15476309839966Q313.3283540503761 318.15476309839966 314.30057625542827 321.66170748090923Q315.30752068208943 325.1686518634188 319.057520615862 333.6408739360162L319.057520615862 333.6408739360162Q320.55057614504926 336.90476276726275 324.4394649652579 345.16865151020613Q328.32835378546656 353.39781803154045 333.8144647996895 364.78670671929433Q339.3005758139124 376.1408731854392 345.5505757035334 389.1617062888164Q351.80057559315446 402.1478171705845 358.3283532556475 415.5158724900517Q364.8214086965316 428.9186500311279 370.55057526201756 440.6547609349718L370.55057526201756 440.6547609349718L370.8283530348896 440.6547609349718Q376.80057515163855 428.64087225825585 383.3283528141317 415.27281693878865Q389.82140825501574 401.90476161932145 396.3144636958998 388.64087296468125Q402.80751913678387 375.4117065316501 408.32835237261577 364.02281784389623Q413.81446338683867 352.66865137775136 417.7033522070473 344.543651521244Q421.55751880564696 336.4186516647367 423.0505743348342 333.1547628334901L423.0505743348342 333.1547628334901Q426.5575187173438 325.1686518634188 427.70335203044095 321.66170748090923Q428.8144631219291 318.15476309839966 428.32835201940304 318.15476309839966L428.32835201940304 318.15476309839966L474.3005734297266 318.15476309839966Q472.56446234927637 318.15476309839966 470.82835126882605 321.66170748090923Q469.05751796676674 325.1686518634188 469.05751796676674 333.3978183847531L469.05751796676674 333.3978183847531L469.05751796676674 453.1547607142139Q469.05751796676674 461.14087168428523 470.82835126882605 464.6478160667948Q472.56446234927637 468.1547604493044 474.3005734297266 468.1547604493044L474.3005734297266 468.1547604493044L436.07140743821134 468.1547604493044Q437.8075185186616 468.1547604493044 439.43946293428485 464.6478160667948Q441.07140734990816 461.14087168428523 441.07140734990816 453.1547607142139L441.07140734990816 453.1547607142139L441.07140734990816 349.6478180977678L440.5505740257731 349.6478180977678Q435.30751856281324 360.1686512452966 429.4394631108912 372.14781770040355Q423.5714076589693 384.1617063771195 417.5644633206113 396.27976171866254Q411.5575189822533 408.3978170602055 406.31446351929344 419.5436501966964Q401.07140805633355 430.6547611115782 396.9394636848619 439.40476095704764Q392.80751931339023 448.1547608025171 390.55057490880483 453.1547607142139L390.55057490880483 453.1547607142139Q387.07835274790426 460.89781613302216 386.93946386146825 464.40476051553173Q386.8005749750322 467.9117048980413 388.0505749529564 468.1547604493044L388.0505749529564 468.1547604493044L353.05057557107864 468.1547604493044Q354.3005755490029 468.1547604493044 354.3005755490029 464.7867049532308Q354.3005755490029 461.41864945715724 350.55057561523023 453.1547607142139L350.55057561523023 453.1547607142139Q348.81446453478 448.9186496779152 344.8214090497443 440.6547609349718Q340.82835356470866 432.3908721920285 335.68946476657584 421.27976127714663Q330.55057596844296 410.1686503622648 324.578353851694 397.7728172478498Q318.571409513336 385.41170635504375 312.703354061414 372.9117065758017Q306.80057638788304 360.4117067965596 301.55752092492315 349.6478180977678L301.55752092492315 349.6478180977678L300.82835427113406 349.6478180977678L300.82835427113406 453.1547607142139Q300.82835427113406 461.14087168428523 302.5644653515843 464.6478160667948Q304.30057643203463 468.1547604493044 306.0714097340939 468.1547604493044L306.0714097340939 468.1547604493044Z " fill="#ee4e34" transform="matrix(0.6119475963130183,0,0,0.6119475963130182,0,59.40990158697498)"/><path d="M653.9384746875173 466.01190355297535L620.9325233058325 466.01190355297535Q622.4206184988751 466.01190355297535 623.9384755957785 463.0059512630294Q625.4265707888212 459.9999989730833 625.4265707888212 453.15476108508733L625.4265707888212 453.15476108508733L625.4265707888212 350.29762134198296Q625.4265707888212 343.45238345398707 623.9384755957785 340.53571687562356Q622.4206184988751 337.6488122011209 620.9325233058325 337.44047887409494L620.9325233058325 337.44047887409494L660.5753792484873 337.44047887409494Q660.1587125944354 337.44047887409494 660.9920459025393 340.446431164041Q661.8551411145039 343.45238345398707 665.0694267314759 350.7142879960349L665.0694267314759 350.7142879960349Q666.3491885974926 353.511906958955 669.682521829908 360.59524007783773Q673.0158550623235 367.6488112928597 677.718235872338 377.4107157592191Q682.4206166823526 387.1428583217177 687.777759377306 398.3035722695372Q693.1349020722594 409.43452431349584 698.7301399980995 420.89285729992383Q704.2956160200788 432.38095219021267 709.2063301571194 442.4404756951807L709.2063301571194 442.4404756951807L709.4444253880063 442.4404756951807Q714.5634728520727 432.14285695932585 720.158710777913 420.68452397289786Q725.7241867998923 409.2261909864699 731.2896628218716 397.8571437116244Q736.8551388438509 386.5178583406398 741.5872815577263 376.7559538742804Q746.2896623677409 367.0238113117818 749.6229956001564 360.0595258083424Q752.9265669287108 353.0952403049031 754.2063287947276 350.29762134198296L754.2063287947276 350.29762134198296Q757.2122810846736 343.45238345398707 758.1944239120817 340.446431164041Q759.1468048356289 337.44047887409494 758.7301381815771 337.44047887409494L758.7301381815771 337.44047887409494L798.134898893345 337.44047887409494Q796.6468037003024 337.44047887409494 795.1587085072599 340.446431164041Q793.6408514103564 343.45238345398707 793.6408514103564 350.50595466900893L793.6408514103564 350.50595466900893L793.6408514103564 453.15476108508733Q793.6408514103564 459.9999989730833 795.1587085072599 463.0059512630294Q796.6468037003024 466.01190355297535 798.134898893345 466.01190355297535L798.134898893345 466.01190355297535L765.367042742547 466.01190355297535Q766.8551379355897 466.01190355297535 768.2539474170496 463.0059512630294Q769.6527568985098 459.9999989730833 769.6527568985098 453.15476108508733L769.6527568985098 453.15476108508733L769.6527568985098 364.43452567588764L769.2063283405969 364.43452567588764Q764.7122808576082 373.4523825457258 759.6825191051244 383.72023937771974Q754.6527573526403 394.0178581135745 749.503947984713 404.4047625610118Q744.3551386167856 414.79166700844917 739.8610911337969 424.34523814778265Q735.3670436508082 433.8690473832553 731.8253770913668 441.36904715619Q728.2837105319254 448.8690469291247 726.3491867809701 453.15476108508733L726.3491867809701 453.15476108508733Q723.3729963948849 459.7916656460573 723.2539487794415 462.79761793600335Q723.1349011639982 465.80357022594944 724.2063297029888 466.01190355297535L724.2063297029888 466.01190355297535L694.20633061125 466.01190355297535Q695.2777591502406 466.01190355297535 695.2777591502406 463.12499887847275Q695.2777591502406 460.23809420397015 692.0634735332687 453.15476108508733L692.0634735332687 453.15476108508733Q690.575378340226 449.5238088140634 687.152759396228 442.4404756951807Q683.7301404522302 435.35714257629786 679.3253786808241 425.8333333408252Q674.920616909418 416.30952410535264 669.8015694453513 405.68452442702846Q664.6527600774241 395.0892866525652 659.62299832494 384.3750012626585Q654.5634746685952 373.6607158727518 650.0694271856066 364.43452567588764L650.0694271856066 364.43452567588764L649.4444272045287 364.43452567588764L649.4444272045287 453.15476108508733Q649.4444272045287 459.9999989730833 650.9325223975713 463.0059512630294Q652.4206175906138 466.01190355297535 653.9384746875173 466.01190355297535L653.9384746875173 466.01190355297535ZM874.6527537195955 468.15476063095673L874.6527537195955 468.15476063095673Q857.7182304227706 468.15476063095673 846.7956117058379 464.19642741746344Q835.8729929889053 460.23809420397015 829.6527550819874 453.15476108508733Q823.4325171750693 446.07142796620457 820.9622791546185 436.66666634617536Q818.4920411341677 427.2321428222853 818.4920411341677 416.0714288744658L818.4920411341677 416.0714288744658Q818.4920411341677 391.8750010355932 832.3313264294638 377.7380967016885Q846.1408498208993 363.5714304639229 873.3729918535789 363.5714304639229L873.3729918535789 363.5714304639229Q889.2063247075521 363.5714304639229 898.9682291739116 367.8571446198856Q908.7301336402709 372.1428587758483 913.759895392755 379.2261918947311Q918.7896571452391 386.30952501361384 920.6051332807508 394.5535723830698Q922.4206094162628 402.79761975252586 922.4206094162628 410.71428617951244L922.4206094162628 410.71428617951244L922.4206094162628 420.80357158834124Q922.4206094162628 420.14880970340255 916.5277524518142 419.40476210688126Q910.6348954873654 418.66071451036 896.7063244804867 418.66071451036L896.7063244804867 418.66071451036L840.3670404718939 418.66071451036Q840.3670404718939 434.52380926819404 849.8015639957841 443.7202375611973Q859.2063256158133 452.9464277580614 877.8670393365674 452.9464277580614L877.8670393365674 452.9464277580614Q893.9384674214275 452.9464277580614 904.325371868865 448.98809454456807Q914.7122763163022 444.9999994272139 918.1348952603003 441.160713829164L918.1348952603003 441.160713829164L918.1348952603003 445.4464279851267L920.2777523382815 459.5833323190314Q915.5753715282669 462.38095128195147 903.6706099839262 465.2678559564541Q891.7956103434462 468.15476063095673 874.6527537195955 468.15476063095673ZM848.9384687838194 404.52381017645524L848.9384687838194 404.52381017645524L900.9920386364495 404.52381017645524Q900.9920386364495 398.92857225061505 898.6408482314421 392.9464295745838Q896.2896578264349 386.93452499469174 890.2777532465427 382.7678584541725Q884.2956105705114 378.5714300097923 873.3729918535789 378.5714300097923L873.3729918535789 378.5714300097923Q864.1468016567146 378.5714300097923 857.3015637687188 381.6964299151818Q850.4265639768619 384.7916679167104 846.6765640903945 389.7321439576118Q842.9265642039272 394.6428580946524 842.9265642039272 400.23809602049255L842.9265642039272 400.23809602049255Q842.9265642039272 402.3809530984739 844.206326069944 403.45238163746455Q845.5158498398214 404.52381017645524 848.9384687838194 404.52381017645524ZM990.158702603562 468.15476063095673L990.158702603562 468.15476063095673Q969.8015603627391 468.15476063095673 958.5515607033371 461.3095227429608Q947.3015610439352 454.434522951104 942.896799272529 442.6488090222066Q938.4920375011229 430.8630950933092 938.4920375011229 416.0714288744658L938.4920375011229 416.0714288744658Q938.4920375011229 401.0714293285964 942.896799272529 389.28571539969903Q947.3015610439352 377.5000014708017 958.5515607033371 370.5357159673623Q969.8015603627391 363.5714304639229 990.158702603562 363.5714304639229L990.158702603562 363.5714304639229Q998.7301309154873 363.5714304639229 1005.3670354764572 365.1785732724089Q1012.0039400374274 366.785716080895 1016.9444160783287 369.4642874283717Q1021.8551302153692 372.1428587758483 1025.0694158323413 375.8035729507331L1025.0694158323413 375.8035729507331L1025.515844390254 375.59523962370713L1025.0694158323413 371.5178587947704L1025.0694158323413 331.0119076401509Q1025.0694158323413 324.166669752155 1023.6706063508811 321.25000317379147Q1022.3015587732821 318.36309849928887 1020.7837016763785 318.15476517226284L1020.7837016763785 318.15476517226284L1046.9444151700675 318.15476517226284L1046.9444151700675 453.15476108508733Q1046.9444151700675 459.9999989730833 1048.3134627476666 463.0059512630294Q1049.7122722291267 466.01190355297535 1051.2301293260302 466.01190355297535L1051.2301293260302 466.01190355297535L1025.0694158323413 466.01190355297535L1025.0694158323413 459.37499899200543L1025.72417771728 455.2976181630687L1025.0694158323413 455.08928483604274Q1021.8551302153692 458.7202371070667 1016.9444160783287 461.7261893970127Q1012.0039400374274 464.73214168695876 1005.3670354764572 466.4285702070273Q998.7301309154873 468.15476063095673 990.158702603562 468.15476063095673ZM991.6467977966045 452.9464277580614L991.6467977966045 452.9464277580614Q1002.5694165135371 452.9464277580614 1009.2063210745071 449.613094525646Q1015.872987539338 446.3095231970914 1019.2956064833359 440.8333328866946Q1022.7182254273339 435.35714257629786 1023.9087015817681 428.92857134235385Q1025.0694158323413 422.50000010840984 1025.0694158323413 416.0714288744658L1025.0694158323413 416.0714288744658Q1025.0694158323413 410.5059528524865 1023.7896539663247 403.9880959069599Q1022.509892100308 397.4404770575725 1019.08727315631 391.6666677085672Q1015.6348923084511 385.86309645570105 1008.9979877474811 382.23214418467717Q1002.3610831865112 378.5714300097923 991.6467977966045 378.5714300097923L991.6467977966045 378.5714300097923Q973.640845960789 378.5714300097923 966.8848937843757 388.8690487456471Q960.1587035118232 399.1666674815019 960.1587035118232 416.30952410535264L960.1587035118232 416.30952410535264Q960.1587035118232 427.6488094763372 962.8372748592999 435.89285684579323Q965.5158462067766 444.16666611911006 972.3610840947724 448.5416659866553Q979.2063219827685 452.9464277580614 991.6467977966045 452.9464277580614ZM1102.2122706396694 466.01190355297535L1071.7956048938788 466.01190355297535Q1073.2837000869215 466.01190355297535 1074.6825095683814 463.0059512630294Q1076.0813190498416 459.9999989730833 1076.0813190498416 453.15476108508733L1076.0813190498416 453.15476108508733L1076.0813190498416 378.5714300097923Q1076.0813190498416 371.7261921217964 1074.6825095683814 368.83928744729377Q1073.2837000869215 365.9523827727911 1071.7956048938788 365.7142875419043L1071.7956048938788 365.7142875419043L1097.926556483707 365.7142875419043L1097.926556483707 453.15476108508733Q1097.926556483707 459.9999989730833 1099.3253659651668 463.0059512630294Q1100.724175446627 466.01190355297535 1102.2122706396694 466.01190355297535L1102.2122706396694 466.01190355297535ZM1084.8610806887928 345.1488119740556L1084.8610806887928 345.1488119740556Q1078.6408427818749 345.1488119740556 1075.2182238378768 341.60714541461425Q1071.7956048938788 338.0952407590337 1071.7956048938788 333.3630980451582L1071.7956048938788 333.3630980451582Q1071.7956048938788 328.45238390811767 1075.0991762224332 325.0000030602588Q1078.4325094548487 321.5773841162609 1084.8610806887928 321.5773841162609L1084.8610806887928 321.5773841162609Q1091.289651922737 321.5773841162609 1094.6229851551523 325.0000030602588Q1097.926556483707 328.45238390811767 1097.926556483707 333.3630980451582L1097.926556483707 333.3630980451582Q1097.926556483707 338.0952407590337 1094.5039375397089 341.60714541461425Q1091.0813185957109 345.1488119740556 1084.8610806887928 345.1488119740556ZM1166.0813163250577 468.15476063095673L1166.0813163250577 468.15476063095673Q1153.6408405112215 468.15476063095673 1144.325364602775 463.74999885955066Q1135.0098886943283 459.37499899200543 1129.9801269418444 448.5416659866553Q1124.9206032854995 437.73809488516605 1124.9206032854995 418.45238118333396L1124.9206032854995 418.45238118333396L1124.9206032854995 378.5714300097923Q1124.9206032854995 371.7261921217964 1123.5515557079004 368.72023983185034Q1122.1527462264403 365.7142875419043 1120.634889129537 365.7142875419043L1120.634889129537 365.7142875419043L1151.2896501062144 365.7142875419043Q1149.801554913172 365.7142875419043 1148.1944121046859 368.72023983185034Q1146.5872692961998 371.7261921217964 1146.5872692961998 378.5714300097923L1146.5872692961998 378.5714300097923L1146.5872692961998 421.42857156941915Q1146.5872692961998 439.64285673226055 1153.0158405301438 446.3095231970914Q1159.4444117640878 452.9464277580614 1169.9206019231078 452.9464277580614L1169.9206019231078 452.9464277580614Q1180.4265539859884 452.9464277580614 1188.1348870859492 447.797618390134Q1195.8729820897706 442.6488090222066 1200.247981957316 433.6607140562293Q1204.6527437287218 424.64285718639115 1204.6527437287218 413.3035718154066L1204.6527437287218 413.3035718154066L1204.6527437287218 378.5714300097923Q1204.6527437287218 371.7261921217964 1203.253934247262 368.83928744729377Q1201.8551247658017 365.9523827727911 1200.3670295727593 365.7142875419043L1200.3670295727593 365.7142875419043L1226.4979811625872 365.7142875419043L1226.4979811625872 453.15476108508733Q1226.4979811625872 459.9999989730833 1227.8967906440473 463.0059512630294Q1229.2956001255075 466.01190355297535 1230.78369531855 466.01190355297535L1230.78369531855 466.01190355297535L1204.6527437287218 466.01190355297535L1204.6527437287218 453.15476108508733L1205.0694103827739 448.8690469291247L1204.6527437287218 448.45238027507276Q1203.3729818627053 451.011904007106 1200.3670295727593 454.34523723952145Q1197.361077282813 457.648808568076 1192.5396488573551 460.863094185048Q1187.7182204318972 464.07737980202 1181.0813158709273 466.13095116841885Q1174.4444113099573 468.15476063095673 1166.0813163250577 468.15476063095673ZM1279.652741458069 466.01190355297535L1249.2063138084172 466.01190355297535Q1250.724170905321 466.01190355297535 1252.122980386781 463.0059512630294Q1253.4920279643802 459.9999989730833 1253.4920279643802 453.15476108508733L1253.4920279643802 453.15476108508733L1253.4920279643802 380.7142870877737Q1253.4920279643802 373.86904919977775 1252.122980386781 370.9821445252751Q1250.724170905321 368.09523985077243 1249.2063138084172 367.8571446198856L1249.2063138084172 367.8571446198856Q1258.6408373323075 367.8571446198856 1265.605122835747 366.4880970422864Q1272.569408339186 365.0892875608264 1275.3670273021062 363.5714304639229L1275.3670273021062 363.5714304639229L1275.3670273021062 376.6666681626978L1274.9205987441935 379.43452522175704L1275.3670273021062 379.8809537796698Q1278.5813129190783 375.8035729507331 1282.5396461325715 372.1428587758483Q1286.4979793460648 368.51190650482437 1292.926550580009 366.04166848437364Q1299.3551218139528 363.5714304639229 1309.4444072227816 363.5714304639229L1309.4444072227816 363.5714304639229Q1329.3551209056918 363.5714304639229 1339.9801205840158 374.94047773876844Q1350.5753583584792 386.30952501361384 1350.5753583584792 410.5059528524865L1350.5753583584792 410.5059528524865L1350.5753583584792 453.15476108508733Q1350.5753583584792 459.9999989730833 1351.9741678399391 463.0059512630294Q1353.3729773213993 466.01190355297535 1354.8610725144417 466.01190355297535L1354.8610725144417 466.01190355297535L1324.444406768651 466.01190355297535Q1325.9325019616936 466.01190355297535 1327.3313114431537 463.0059512630294Q1328.7301209246139 459.9999989730833 1328.7301209246139 453.15476108508733L1328.7301209246139 453.15476108508733L1328.7301209246139 411.1607147374252Q1328.7301209246139 398.51190559656317 1325.5158353076417 391.4285724776804Q1322.3015496906696 384.3750012626585 1316.6170260532472 381.4880965881558Q1310.9325024158243 378.5714300097923 1303.4325026428896 378.5714300097923L1303.4325026428896 378.5714300097923Q1295.5158362159032 378.5714300097923 1289.087264981959 382.02381085765114Q1282.6586937480151 385.4464298016492 1278.9979795731301 392.9464295745838Q1275.3670273021062 400.4464293475185 1275.3670273021062 413.09523848838063L1275.3670273021062 413.09523848838063L1275.3670273021062 453.15476108508733Q1275.3670273021062 459.9999989730833 1276.7658367835663 463.0059512630294Q1278.1348843611654 466.01190355297535 1279.652741458069 466.01190355297535L1279.652741458069 466.01190355297535ZM1429.8610702437886 466.01190355297535L1399.444404497998 466.01190355297535Q1400.9324996910404 466.01190355297535 1402.3313091725008 463.0059512630294Q1403.7301186539607 459.9999989730833 1403.7301186539607 453.15476108508733L1403.7301186539607 453.15476108508733L1403.7301186539607 411.1607147374252Q1403.7301186539607 398.51190559656317 1400.5158330369886 391.4285724776804Q1397.3015474200167 384.3750012626585 1391.617023782594 381.4880965881558Q1385.9325001451712 378.5714300097923 1378.4325003722365 378.5714300097923L1378.4325003722365 378.5714300097923Q1365.9920245584003 378.5714300097923 1358.2836914584398 386.3988107251964Q1350.5753583584792 394.2261914406005 1350.5753583584792 412.8571432574938L1350.5753583584792 412.8571432574938L1341.7955967195278 391.4285724776804Q1342.4205967006055 389.0773820726731 1344.8908347210563 384.58333458968445Q1347.361072741507 380.0892871066958 1352.1825011669653 375.2678586812378Q1357.003929592423 370.4464302557798 1364.8313103078272 367.0238113117818Q1372.6586910232313 363.5714304639229 1384.4444049521287 363.5714304639229L1384.4444049521287 363.5714304639229Q1397.7182140740688 363.5714304639229 1406.9444042709329 368.6309541202678Q1416.1408325639359 373.6607158727518 1420.8729752778117 383.9285727047457Q1425.575356087826 394.2261914406005 1425.575356087826 410.5059528524865L1425.575356087826 410.5059528524865L1425.575356087826 453.15476108508733Q1425.575356087826 459.9999989730833 1426.974165569286 463.0059512630294Q1428.3729750507462 466.01190355297535 1429.8610702437886 466.01190355297535L1429.8610702437886 466.01190355297535Z " fill="#fcedda" transform="matrix(0.6119475963130183,0,0,0.6119475963130182,0,59.40990158697498)"/></g></svg>